<svg width="1250" height="1250" viewBox="0 0 1250 1250" fill="none" xmlns="http://www.w3.org/2000/svg">
<rect width="1250" height="1250" fill="black"/>
<path d="M177 717H246.609V867.82H365.789V717H435.398V1086.14H365.789V934.265H246.609V1086.14H177V717Z" fill="white"/>
<path d="M575.305 946.921V1086.14H505.695V717H650.187C669.172 717 685.695 720.164 699.757 726.492C713.82 732.469 725.421 740.555 734.562 750.75C744.054 760.594 751.086 772.019 755.656 785.027C760.578 797.683 763.039 810.691 763.039 824.051V836.707C763.039 850.418 760.578 863.953 755.656 877.312C751.086 890.32 744.054 902.097 734.562 912.644C725.421 922.839 713.82 931.101 699.757 937.429C685.695 943.757 669.172 946.921 650.187 946.921H575.305ZM575.305 880.476H643.332C658.8 880.476 670.929 876.258 679.718 867.82C688.859 859.383 693.429 848.484 693.429 835.125V828.797C693.429 815.437 688.859 804.539 679.718 796.101C670.929 787.664 658.8 783.445 643.332 783.445H575.305V880.476Z" fill="white"/>
</svg>
